<svg width="32" height="32" viewBox="0 0 32 32"
  xmlns="http://www.w3.org/2000/svg" fill="none">
  <path d="M6.66667 14.6667H12C13.4667 14.6667 14.6667 13.4667 14.6667 12V6.66667C14.6667 5.2 13.4667 4 12 4H6.66667C5.2 4 4 5.2 4 6.66667V12C4 13.4667 5.2 14.6667 6.66667 14.6667Z" fill="#9CAAB7" />
  <path d="M6.66667 28H12C13.4667 28 14.6667 26.8 14.6667 25.3333V20C14.6667 18.5333 13.4667 17.3333 12 17.3333H6.66667C5.2 17.3333 4 18.5333 4 20V25.3333C4 26.8 5.2 28 6.66667 28Z" fill="#9CAAB7" />
  <path d="M17.3333 6.66667V12C17.3333 13.4667 18.5333 14.6667 19.9999 14.6667H25.3333C26.7999 14.6667 27.9999 13.4667 27.9999 12V6.66667C27.9999 5.2 26.7999 4 25.3333 4H19.9999C18.5333 4 17.3333 5.2 17.3333 6.66667Z" fill="#9CAAB7" />
  <path d="M19.9999 28H25.3333C26.7999 28 27.9999 26.8 27.9999 25.3333V20C27.9999 18.5333 26.7999 17.3333 25.3333 17.3333H19.9999C18.5333 17.3333 17.3333 18.5333 17.3333 20V25.3333C17.3333 26.8 18.5333 28 19.9999 28Z" fill="#9CAAB7" />
</svg>
