<svg width="130" height="36" viewBox="0 0 130 36" fill="none" xmlns="http://www.w3.org/2000/svg">
<path fill-rule="evenodd" clip-rule="evenodd" d="M21.6536 35.1109C21.6536 35.6041 22.1054 35.9734 22.58 35.8473C30.3029 33.7965 36 26.6824 36 18.2212C36 8.15792 27.9411 0 18 0C8.05887 0 0 8.15792 0 18.2212C0 26.8769 5.96205 34.1229 13.9558 35.9807C14.425 36.0898 14.8608 35.7224 14.8608 35.2386V30.9218C14.8608 30.5731 14.629 30.2691 14.2988 30.1615C11.7672 29.3357 9.71964 27.8736 8.1561 25.7751C6.49018 23.5234 5.65722 20.9143 5.65722 17.9478C5.65722 14.0282 7.11197 10.8174 10.0215 8.31554C12.4382 6.24255 15.1893 5.20606 18.2748 5.20606C22.2519 5.20606 25.4606 6.66549 27.9008 9.58435C29.8717 11.9433 30.8572 14.6655 30.8572 17.7512C30.8572 20.7773 29.9832 23.4876 28.2352 25.8823C26.769 27.9044 24.7622 29.3308 22.2145 30.1613C21.8848 30.2688 21.6536 30.5725 21.6536 30.9207V35.1109ZM21.4248 20.6913C21.4248 20.2617 21.0782 19.9135 20.6506 19.9135H15.8814C15.4538 19.9135 15.1072 20.2617 15.1072 20.6913V20.9864C15.1072 21.6459 14.3629 21.9724 13.9913 21.4287C13.3274 20.4572 12.9955 19.3089 12.9955 17.9835C12.9955 16.4705 13.5176 15.16 14.5617 14.052C15.6058 12.944 16.8435 12.39 18.2748 12.39C19.6944 12.39 20.9262 12.944 21.9703 14.052C23.0145 15.16 23.5365 16.4705 23.5365 17.9835C23.5365 19.2686 23.2085 20.4009 22.5524 21.3806C22.1819 21.9337 21.4248 21.6099 21.4248 20.9432V20.6913Z" fill="#15ADFF"/>
<path d="M116.171 18.1944V29.5H110V6.5H114.81L123.829 18.1944V6.5H130V29.5H125.095L116.171 18.1944Z" fill="#040B1D"/>
<path d="M93.4426 6.5H100.59L108 29.5H101.508L100.098 24.9972H93.9016L92.5246 29.5H86L93.4426 6.5ZM99.082 20.7859L97.0164 12.6873L94.8525 20.7859H99.082Z" fill="#040B1D"/>
<path d="M64 17.7667C64 16.3222 64.2663 14.9111 64.7988 13.5333C65.3535 12.1333 66.1523 10.8667 67.1952 9.73333C68.238 8.6 69.5028 7.7 70.9894 7.03333C72.4982 6.34444 74.1957 6 76.0817 6C78.3449 6 80.3197 6.47778 82.006 7.43333C83.6924 8.36667 84.946 9.61111 85.767 11.1667L80.8079 14.7C80.5194 13.9222 80.0978 13.3222 79.5431 12.9C79.0106 12.4778 78.4226 12.1889 77.7791 12.0333C77.1578 11.8556 76.5477 11.7667 75.9486 11.7667C75.0166 11.7667 74.2068 11.9556 73.5189 12.3333C72.8533 12.6889 72.2985 13.1667 71.8548 13.7667C71.4332 14.3667 71.1114 15.0333 70.8896 15.7667C70.6899 16.5 70.59 17.2333 70.59 17.9667C70.59 18.7889 70.7121 19.5778 70.9561 20.3333C71.2002 21.0889 71.5552 21.7667 72.0212 22.3667C72.4871 22.9444 73.0529 23.4 73.7186 23.7333C74.4065 24.0667 75.172 24.2333 76.0151 24.2333C76.6142 24.2333 77.2244 24.1444 77.8457 23.9667C78.467 23.7667 79.0328 23.4556 79.5431 23.0333C80.0535 22.6111 80.4418 22.0444 80.708 21.3333L86 24.5C85.534 25.6556 84.7574 26.6444 83.6702 27.4667C82.583 28.2889 81.3515 28.9222 79.9758 29.3667C78.6001 29.7889 77.2355 30 75.882 30C74.1291 30 72.5204 29.6556 71.056 28.9667C69.6137 28.2556 68.3601 27.3222 67.295 26.1667C66.2521 24.9889 65.4423 23.6778 64.8654 22.2333C64.2885 20.7667 64 19.2778 64 17.7667Z" fill="#040B1D"/>
<path d="M59.6857 13.8786C59.6857 13.8786 59.4997 13.7683 59.1278 13.5476C58.7559 13.3269 58.2637 13.0841 57.6511 12.8193C57.0386 12.5324 56.3713 12.2786 55.6494 12.0579C54.9275 11.8372 54.2165 11.7269 53.5164 11.7269C52.9695 11.7269 52.521 11.8152 52.171 11.9917C51.821 12.1683 51.6459 12.4662 51.6459 12.8855C51.6459 13.2828 51.821 13.6028 52.171 13.8455C52.521 14.0883 53.0132 14.309 53.6477 14.5076C54.304 14.7062 55.0806 14.949 55.9775 15.2359C57.4214 15.6772 58.6684 16.1848 59.7185 16.7586C60.7686 17.3324 61.578 18.0717 62.1468 18.9766C62.7156 19.8593 63 21.04 63 22.5186C63 23.931 62.7484 25.1228 62.2452 26.0938C61.7421 27.0428 61.0639 27.8041 60.2107 28.3779C59.3575 28.9517 58.4059 29.371 57.3558 29.6359C56.3057 29.8786 55.2337 30 54.1399 30C53.0242 30 51.8538 29.8897 50.6287 29.669C49.4254 29.4262 48.255 29.1062 47.1174 28.709C45.9799 28.2897 44.9407 27.8041 44 27.2524L46.7565 21.5917C46.7565 21.5917 46.9752 21.7241 47.4128 21.989C47.8503 22.2538 48.4301 22.5517 49.152 22.8828C49.8739 23.2138 50.6724 23.5117 51.5475 23.7766C52.4444 24.0414 53.3414 24.1738 54.2383 24.1738C54.9384 24.1738 55.4197 24.0855 55.6822 23.909C55.9666 23.7103 56.1088 23.4566 56.1088 23.1476C56.1088 22.6841 55.8682 22.331 55.3869 22.0883C54.9056 21.8234 54.2712 21.5807 53.4836 21.36C52.7179 21.1172 51.8647 20.8414 50.924 20.5324C49.5676 20.069 48.4519 19.5503 47.5769 18.9766C46.7018 18.3807 46.0564 17.6855 45.6408 16.891C45.2251 16.0745 45.0173 15.0924 45.0173 13.9448C45.0173 12.2014 45.422 10.7448 46.2314 9.57517C47.0409 8.40552 48.1019 7.52276 49.4145 6.9269C50.749 6.30897 52.1819 6 53.7133 6C54.8509 6 55.9447 6.14345 56.9948 6.43035C58.0668 6.69517 59.0622 7.02621 59.981 7.42345C60.9217 7.82069 61.7421 8.19586 62.4421 8.54896L59.6857 13.8786Z" fill="#040B1D"/>
</svg>
