<svg width="40" height="40" viewBox="0 0 40 40" fill="none" xmlns="http://www.w3.org/2000/svg">
<path fill-rule="evenodd" clip-rule="evenodd" d="M33.5315 19.5099C33.5186 16.4026 32.6068 13.6361 30.7949 11.1943L30.794 11.193C29.3575 9.24396 27.4209 7.84454 24.966 6.99588C24.2148 6.73616 23.6568 6.04064 23.6533 5.20823L23.6392 1.81168C23.6344 0.65728 24.7087 -0.271347 25.879 0.0725157C34.013 2.46266 39.9628 10.0005 40 18.9676L39.9899 21.0262C39.9565 29.9933 34.0098 37.5337 25.8768 39.9273C24.7068 40.2716 23.6321 39.3435 23.6364 38.1891L23.649 34.7925C23.6521 33.9601 24.2098 33.2643 24.961 33.0043C27.4155 32.1546 29.3515 30.7544 30.7872 28.8047L30.7881 28.8034C32.5989 26.3609 33.5096 23.5939 33.5211 20.4866L33.5315 19.5099ZM6.4685 19.51C6.48139 16.4027 7.39319 13.6361 9.20507 11.1944L9.20601 11.1931C10.6425 9.24401 12.5791 7.8446 15.034 6.99594C15.7852 6.73622 16.3432 6.0407 16.3467 5.20829L16.3608 1.81174C16.3656 0.65734 15.2913 -0.271287 14.121 0.0725756C5.98704 2.46272 0.0371923 10.0006 0 18.9676L0.0101272 21.0263C0.0435119 29.9934 5.99016 37.5337 14.1232 39.9273C15.2932 40.2717 16.3679 39.3435 16.3636 38.1891L16.351 34.7926C16.3479 33.9602 15.7902 33.2644 15.039 33.0044C12.5845 32.1547 10.6485 30.7544 9.21284 28.8047L9.2119 28.8035C7.40106 26.3609 6.49043 23.594 6.47886 20.4867L6.4685 19.51ZM20 12.7272C17.9917 12.7272 16.3636 14.3553 16.3636 16.3636V23.6363C16.3636 25.6446 17.9917 27.2727 20 27.2727C22.0083 27.2727 23.6364 25.6446 23.6364 23.6363V16.3636C23.6364 14.3553 22.0083 12.7272 20 12.7272Z" fill="#5942C8"/>
</svg>
