<svg width="140" height="64" viewBox="0 0 140 64" fill="none" xmlns="http://www.w3.org/2000/svg">
  <path d="M12.0625 52.4922C12.0625 52.293 12.0312 52.1172 11.9688 51.9648C11.9102 51.8086 11.8047 51.668 11.6523 51.543C11.5039 51.418 11.2969 51.2988 11.0312 51.1855C10.7695 51.0723 10.4375 50.957 10.0352 50.8398C9.61328 50.7148 9.23242 50.5762 8.89258 50.4238C8.55273 50.2676 8.26172 50.0898 8.01953 49.8906C7.77734 49.6914 7.5918 49.4629 7.46289 49.2051C7.33398 48.9473 7.26953 48.6523 7.26953 48.3203C7.26953 47.9883 7.33789 47.6816 7.47461 47.4004C7.61133 47.1191 7.80664 46.875 8.06055 46.668C8.31836 46.457 8.625 46.293 8.98047 46.1758C9.33594 46.0586 9.73242 46 10.1699 46C10.8105 46 11.3535 46.123 11.7988 46.3691C12.248 46.6113 12.5898 46.9297 12.8242 47.3242C13.0586 47.7148 13.1758 48.1328 13.1758 48.5781H12.0508C12.0508 48.2578 11.9824 47.9746 11.8457 47.7285C11.709 47.4785 11.502 47.2832 11.2246 47.1426C10.9473 46.998 10.5957 46.9258 10.1699 46.9258C9.76758 46.9258 9.43555 46.9863 9.17383 47.1074C8.91211 47.2285 8.7168 47.3926 8.58789 47.5996C8.46289 47.8066 8.40039 48.043 8.40039 48.3086C8.40039 48.4883 8.4375 48.6523 8.51172 48.8008C8.58984 48.9453 8.70898 49.0801 8.86914 49.2051C9.0332 49.3301 9.24023 49.4453 9.49023 49.5508C9.74414 49.6562 10.0469 49.7578 10.3984 49.8555C10.8828 49.9922 11.3008 50.1445 11.6523 50.3125C12.0039 50.4805 12.293 50.6699 12.5195 50.8809C12.75 51.0879 12.9199 51.3242 13.0293 51.5898C13.1426 51.8516 13.1992 52.1484 13.1992 52.4805C13.1992 52.8281 13.1289 53.1426 12.9883 53.4238C12.8477 53.7051 12.6465 53.9453 12.3848 54.1445C12.123 54.3438 11.8086 54.498 11.4414 54.6074C11.0781 54.7129 10.6719 54.7656 10.2227 54.7656C9.82812 54.7656 9.43945 54.7109 9.05664 54.6016C8.67773 54.4922 8.33203 54.3281 8.01953 54.1094C7.71094 53.8906 7.46289 53.6211 7.27539 53.3008C7.0918 52.9766 7 52.6016 7 52.1758H8.125C8.125 52.4688 8.18164 52.7207 8.29492 52.9316C8.4082 53.1387 8.5625 53.3105 8.75781 53.4473C8.95703 53.584 9.18164 53.6855 9.43164 53.752C9.68555 53.8145 9.94922 53.8457 10.2227 53.8457C10.6172 53.8457 10.9512 53.791 11.2246 53.6816C11.498 53.5723 11.7051 53.416 11.8457 53.2129C11.9902 53.0098 12.0625 52.7695 12.0625 52.4922Z" fill="#040B1D"/>
  <path d="M17.0137 53.875C17.2715 53.875 17.5098 53.8223 17.7285 53.7168C17.9473 53.6113 18.127 53.4668 18.2676 53.2832C18.4082 53.0957 18.4883 52.8828 18.5078 52.6445H19.5391C19.5195 53.0195 19.3926 53.3691 19.1582 53.6934C18.9277 54.0137 18.625 54.2734 18.25 54.4727C17.875 54.668 17.4629 54.7656 17.0137 54.7656C16.5371 54.7656 16.1211 54.6816 15.7656 54.5137C15.4141 54.3457 15.1211 54.1152 14.8867 53.8223C14.6562 53.5293 14.4824 53.1934 14.3652 52.8145C14.252 52.4316 14.1953 52.0273 14.1953 51.6016V51.3555C14.1953 50.9297 14.252 50.5273 14.3652 50.1484C14.4824 49.7656 14.6562 49.4277 14.8867 49.1348C15.1211 48.8418 15.4141 48.6113 15.7656 48.4434C16.1211 48.2754 16.5371 48.1914 17.0137 48.1914C17.5098 48.1914 17.9434 48.293 18.3145 48.4961C18.6855 48.6953 18.9766 48.9688 19.1875 49.3164C19.4023 49.6602 19.5195 50.0508 19.5391 50.4883H18.5078C18.4883 50.2266 18.4141 49.9902 18.2852 49.7793C18.1602 49.5684 17.9883 49.4004 17.7695 49.2754C17.5547 49.1465 17.3027 49.082 17.0137 49.082C16.6816 49.082 16.4023 49.1484 16.1758 49.2812C15.9531 49.4102 15.7754 49.5859 15.6426 49.8086C15.5137 50.0273 15.4199 50.2715 15.3613 50.541C15.3066 50.8066 15.2793 51.0781 15.2793 51.3555V51.6016C15.2793 51.8789 15.3066 52.1523 15.3613 52.4219C15.416 52.6914 15.5078 52.9355 15.6367 53.1543C15.7695 53.373 15.9473 53.5488 16.1699 53.6816C16.3965 53.8105 16.6777 53.875 17.0137 53.875Z" fill="#040B1D"/>
  <path d="M24.4961 53.5645V50.3008C24.4961 50.0508 24.4453 49.834 24.3438 49.6504C24.2461 49.4629 24.0977 49.3184 23.8984 49.2168C23.6992 49.1152 23.4531 49.0645 23.1602 49.0645C22.8867 49.0645 22.6465 49.1113 22.4395 49.2051C22.2363 49.2988 22.0762 49.4219 21.959 49.5742C21.8457 49.7266 21.7891 49.8906 21.7891 50.0664H20.7051C20.7051 49.8398 20.7637 49.6152 20.8809 49.3926C20.998 49.1699 21.166 48.9688 21.3848 48.7891C21.6074 48.6055 21.873 48.4609 22.1816 48.3555C22.4941 48.2461 22.8418 48.1914 23.2246 48.1914C23.6855 48.1914 24.0918 48.2695 24.4434 48.4258C24.7988 48.582 25.0762 48.8184 25.2754 49.1348C25.4785 49.4473 25.5801 49.8398 25.5801 50.3125V53.2656C25.5801 53.4766 25.5977 53.7012 25.6328 53.9395C25.6719 54.1777 25.7285 54.3828 25.8027 54.5547V54.6484H24.6719C24.6172 54.5234 24.5742 54.3574 24.543 54.1504C24.5117 53.9395 24.4961 53.7441 24.4961 53.5645ZM24.6836 50.8047L24.6953 51.5664H23.5996C23.291 51.5664 23.0156 51.5918 22.7734 51.6426C22.5312 51.6895 22.3281 51.7617 22.1641 51.8594C22 51.957 21.875 52.0801 21.7891 52.2285C21.7031 52.373 21.6602 52.543 21.6602 52.7383C21.6602 52.9375 21.7051 53.1191 21.7949 53.2832C21.8848 53.4473 22.0195 53.5781 22.1992 53.6758C22.3828 53.7695 22.6074 53.8164 22.873 53.8164C23.2051 53.8164 23.498 53.7461 23.752 53.6055C24.0059 53.4648 24.207 53.293 24.3555 53.0898C24.5078 52.8867 24.5898 52.6895 24.6016 52.498L25.0645 53.0195C25.0371 53.1836 24.9629 53.3652 24.8418 53.5645C24.7207 53.7637 24.5586 53.9551 24.3555 54.1387C24.1562 54.3184 23.918 54.4688 23.6406 54.5898C23.3672 54.707 23.0586 54.7656 22.7148 54.7656C22.2852 54.7656 21.9082 54.6816 21.584 54.5137C21.2637 54.3457 21.0137 54.1211 20.834 53.8398C20.6582 53.5547 20.5703 53.2363 20.5703 52.8848C20.5703 52.5449 20.6367 52.2461 20.7695 51.9883C20.9023 51.7266 21.0938 51.5098 21.3438 51.3379C21.5938 51.1621 21.8945 51.0293 22.2461 50.9395C22.5977 50.8496 22.9902 50.8047 23.4238 50.8047H24.6836Z" fill="#040B1D"/>
  <path d="M28.3691 49.6621V54.6484H27.2852V48.3086H28.3105L28.3691 49.6621ZM28.1113 51.2383L27.6602 51.2207C27.6641 50.7871 27.7285 50.3867 27.8535 50.0195C27.9785 49.6484 28.1543 49.3262 28.3809 49.0527C28.6074 48.7793 28.877 48.5684 29.1895 48.4199C29.5059 48.2676 29.8555 48.1914 30.2383 48.1914C30.5508 48.1914 30.832 48.2344 31.082 48.3203C31.332 48.4023 31.5449 48.5352 31.7207 48.7188C31.9004 48.9023 32.0371 49.1406 32.1309 49.4336C32.2246 49.7227 32.2715 50.0762 32.2715 50.4941V54.6484H31.1816V50.4824C31.1816 50.1504 31.1328 49.8848 31.0352 49.6855C30.9375 49.4824 30.7949 49.3359 30.6074 49.2461C30.4199 49.1523 30.1895 49.1055 29.916 49.1055C29.6465 49.1055 29.4004 49.1621 29.1777 49.2754C28.959 49.3887 28.7695 49.5449 28.6094 49.7441C28.4531 49.9434 28.3301 50.1719 28.2402 50.4297C28.1543 50.6836 28.1113 50.9531 28.1113 51.2383Z" fill="#040B1D"/>
  <path d="M41.6387 51.9004C41.6387 52.8691 41.416 53.6484 40.9707 54.2383C40.5254 54.8242 39.9277 55.1172 39.1777 55.1172C38.377 55.1172 37.7578 54.834 37.3203 54.2676L37.2676 55H36.2715V46H37.3555V49.3574C37.793 48.8145 38.3965 48.543 39.166 48.543C39.9355 48.543 40.5391 48.834 40.9766 49.416C41.418 49.998 41.6387 50.7949 41.6387 51.8066V51.9004ZM40.5547 51.7773C40.5547 51.0391 40.4121 50.4688 40.127 50.0664C39.8418 49.6641 39.4316 49.4629 38.8965 49.4629C38.1816 49.4629 37.668 49.7949 37.3555 50.459V53.2012C37.6875 53.8652 38.2051 54.1973 38.9082 54.1973C39.4277 54.1973 39.832 53.9961 40.1211 53.5938C40.4102 53.1914 40.5547 52.5859 40.5547 51.7773Z" fill="#7F90A1"/>
  <path d="M45.6406 55.1172C44.7812 55.1172 44.082 54.8359 43.543 54.2734C43.0039 53.707 42.7344 52.9512 42.7344 52.0059V51.8066C42.7344 51.1777 42.8535 50.6172 43.0918 50.125C43.334 49.6289 43.6699 49.2422 44.0996 48.9648C44.5332 48.6836 45.002 48.543 45.5059 48.543C46.3301 48.543 46.9707 48.8145 47.4277 49.3574C47.8848 49.9004 48.1133 50.6777 48.1133 51.6895V52.1406H43.8184C43.834 52.7656 44.0156 53.2715 44.3633 53.6582C44.7148 54.041 45.1602 54.2324 45.6992 54.2324C46.082 54.2324 46.4062 54.1543 46.6719 53.998C46.9375 53.8418 47.1699 53.6348 47.3691 53.377L48.0312 53.8926C47.5 54.709 46.7031 55.1172 45.6406 55.1172ZM45.5059 49.4336C45.0684 49.4336 44.7012 49.5938 44.4043 49.9141C44.1074 50.2305 43.9238 50.6758 43.8535 51.25H47.0293V51.168C46.998 50.6172 46.8496 50.1914 46.584 49.8906C46.3184 49.5859 45.959 49.4336 45.5059 49.4336Z" fill="#7F90A1"/>
  <path d="M50.8438 47.125V48.6602H52.0273V49.498H50.8438V53.4297C50.8438 53.6836 50.8965 53.875 51.002 54.0039C51.1074 54.1289 51.2871 54.1914 51.541 54.1914C51.666 54.1914 51.8379 54.168 52.0566 54.1211V55C51.7715 55.0781 51.4941 55.1172 51.2246 55.1172C50.7402 55.1172 50.375 54.9707 50.1289 54.6777C49.8828 54.3848 49.7598 53.9688 49.7598 53.4297V49.498H48.6055V48.6602H49.7598V47.125H50.8438Z" fill="#7F90A1"/>
  <path d="M57.2129 55C57.1504 54.875 57.0996 54.6523 57.0605 54.332C56.5566 54.8555 55.9551 55.1172 55.2559 55.1172C54.6309 55.1172 54.1172 54.9414 53.7148 54.5898C53.3164 54.2344 53.1172 53.7852 53.1172 53.2422C53.1172 52.582 53.3672 52.0703 53.8672 51.707C54.3711 51.3398 55.0781 51.1562 55.9883 51.1562H57.043V50.6582C57.043 50.2793 56.9297 49.9785 56.7031 49.7559C56.4766 49.5293 56.1426 49.416 55.7012 49.416C55.3145 49.416 54.9902 49.5137 54.7285 49.709C54.4668 49.9043 54.3359 50.1406 54.3359 50.418H53.2461C53.2461 50.1016 53.3574 49.7969 53.5801 49.5039C53.8066 49.207 54.1113 48.9727 54.4941 48.8008C54.8809 48.6289 55.3047 48.543 55.7656 48.543C56.4961 48.543 57.0684 48.7266 57.4824 49.0938C57.8965 49.457 58.1113 49.959 58.127 50.5996V53.5176C58.127 54.0996 58.2012 54.5625 58.3496 54.9062V55H57.2129ZM55.4141 54.1738C55.7539 54.1738 56.0762 54.0859 56.3809 53.9102C56.6855 53.7344 56.9062 53.5059 57.043 53.2246V51.9238H56.1934C54.8652 51.9238 54.2012 52.3125 54.2012 53.0898C54.2012 53.4297 54.3145 53.6953 54.541 53.8867C54.7676 54.0781 55.0586 54.1738 55.4141 54.1738Z" fill="#7F90A1"/>
  <path fill-rule="evenodd" clip-rule="evenodd" d="M77.8039 39.9494C77.8039 40.4404 78.2496 40.8079 78.7177 40.6825C86.3353 38.6411 91.9546 31.5597 91.9546 23.1374C91.9546 13.1204 84.0057 5 74.2001 5C64.3945 5 56.4456 13.1204 56.4456 23.1374C56.4456 31.7533 62.3263 38.966 70.211 40.8153C70.6739 40.9238 71.1038 40.5582 71.1038 40.0765V35.7796C71.1038 35.4325 70.875 35.1299 70.5494 35.0228C68.0523 34.2008 66.0327 32.7454 64.4904 30.6566C62.8472 28.4152 62.0256 25.8181 62.0256 22.8652C62.0256 18.9637 63.4605 15.7677 66.3304 13.2773C68.7142 11.2138 71.4278 10.1821 74.4712 10.1821C78.394 10.1821 81.5589 11.6348 83.9659 14.5403C85.91 16.8883 86.882 19.5981 86.882 22.6696C86.882 25.6817 86.0199 28.3796 84.2957 30.7633C82.8496 32.7761 80.87 34.1959 78.3571 35.0226C78.0319 35.1296 77.8039 35.432 77.8039 35.7786V39.9494ZM77.5782 25.5962C77.5782 25.1686 77.2363 24.822 76.8146 24.822H72.1104C71.6887 24.822 71.3468 25.1686 71.3468 25.5962V25.8899C71.3468 26.5464 70.6126 26.8714 70.2461 26.3301C69.5912 25.3632 69.2638 24.2201 69.2638 22.9008C69.2638 21.3947 69.7788 20.0903 70.8087 18.9874C71.8386 17.8845 73.0594 17.3331 74.4712 17.3331C75.8714 17.3331 77.0864 17.8845 78.1163 18.9874C79.1462 20.0903 79.6611 21.3947 79.6611 22.9008C79.6611 24.18 79.3376 25.3071 78.6904 26.2823C78.325 26.8329 77.5782 26.5105 77.5782 25.8469V25.5962Z" fill="#15ADFF"/>
  <path d="M7 16.2879C7 15.8603 7.34189 15.5137 7.76364 15.5137H13.9616C14.3833 15.5137 14.7252 15.8603 14.7252 16.2879V26.7111C14.7252 27.1989 14.8312 27.5841 15.0432 27.8669C15.2553 28.1426 15.5152 28.2804 15.823 28.2804C16.1376 28.2804 16.4522 28.132 16.7668 27.8351C17.0883 27.5311 17.249 27.1564 17.249 26.7111V16.2879C17.249 15.8603 17.5909 15.5137 18.0126 15.5137H24.3029C24.7246 15.5137 25.0665 15.8603 25.0665 16.2879V27.0186C25.0665 28.7929 24.6254 30.3305 23.7431 31.6312C22.8676 32.9319 21.7186 33.9145 20.296 34.579C18.8802 35.2434 17.3892 35.5757 15.823 35.5757C14.7081 35.5757 13.6206 35.3954 12.5605 35.0349C11.5004 34.6673 10.5497 34.123 9.70844 33.402C8.87402 32.6738 8.21401 31.7725 7.72841 30.698C7.2428 29.6235 7 28.3971 7 27.0186V16.2879Z" fill="#040B1D"/>
  <path d="M27.6502 34.4529C27.2284 34.4529 26.8865 34.1063 26.8865 33.6787V22.0679C26.8865 20.5057 27.3072 19.1696 28.1484 18.0598C28.9965 16.9428 30.1148 16.1016 31.5032 15.5361C32.8916 14.9706 34.3621 14.6878 35.9147 14.6878C37.5014 14.6878 39.0095 14.9847 40.439 15.5785C41.8753 16.1653 43.0346 17.0453 43.9169 18.2188C44.806 19.3923 45.2506 20.7778 45.2506 22.3754V33.6787C45.2506 34.1063 44.9087 34.4529 44.4869 34.4529H37.8991C37.4774 34.4529 37.1355 34.1063 37.1355 33.6787V22.895C37.1355 22.4708 37.0192 22.1563 36.7867 21.9513C36.561 21.7392 36.3011 21.6332 36.007 21.6332C35.6787 21.6332 35.3641 21.7604 35.0631 22.0149C34.7622 22.2623 34.6117 22.5557 34.6117 22.895V33.6787C34.6117 34.1063 34.2698 34.4529 33.8481 34.4529H27.6502Z" fill="#040B1D"/>
  <path d="M47.8239 34.4529C47.4022 34.4529 47.0603 34.1063 47.0603 33.6787V15.6847C47.0603 15.2571 47.4022 14.9105 47.8239 14.9105H54.3297C54.7514 14.9105 55.0933 15.2571 55.0933 15.6847V33.6787C55.0933 34.1063 54.7514 34.4529 54.3297 34.4529H47.8239Z" fill="#040B1D"/>
  <path d="M93.454 16.2879C93.454 15.8603 93.7959 15.5137 94.2176 15.5137H100.416C100.837 15.5137 101.179 15.8603 101.179 16.2879V26.7111C101.179 27.1989 101.285 27.5841 101.497 27.8669C101.709 28.1426 101.969 28.2804 102.277 28.2804C102.592 28.2804 102.906 28.132 103.221 27.8351C103.542 27.5311 103.703 27.1564 103.703 26.7111V16.2879C103.703 15.8603 104.045 15.5137 104.467 15.5137H110.757C111.179 15.5137 111.521 15.8603 111.521 16.2879V27.0186C111.521 28.7929 111.079 30.3305 110.197 31.6312C109.322 32.9319 108.173 33.9145 106.75 34.579C105.334 35.2434 103.843 35.5757 102.277 35.5757C101.162 35.5757 100.075 35.3954 99.0145 35.0349C97.9544 34.6673 97.0037 34.123 96.1624 33.402C95.328 32.6738 94.668 31.7725 94.1824 30.698C93.6968 29.6235 93.454 28.3971 93.454 27.0186V16.2879Z" fill="#040B1D"/>
  <path d="M132.666 21.439C132.818 21.7941 132.671 22.2051 132.337 22.3933L124.008 27.0912C123.643 27.2976 123.181 27.1668 122.974 26.7981L121.748 24.619C121.537 24.243 121.671 23.7644 122.045 23.5565L124.39 22.2544C124.833 22.0079 124.904 21.3911 124.42 21.2393C124.188 21.1663 123.936 21.1298 123.669 21.1298C122.823 21.1298 121.977 21.5219 121.13 22.276C120.955 22.4268 120.167 23.03 119.934 23.6634C119.788 24.0253 119.817 24.3571 119.846 24.5682C119.875 24.8397 120.663 27.0415 121.335 27.8257C122.035 28.64 122.823 29.0321 123.757 29.0321C125.113 29.0321 126.585 28.2614 128.112 26.7201C128.419 26.41 128.917 26.3921 129.227 26.6993L132.468 29.9114C132.73 30.1712 132.776 30.5855 132.551 30.8796C131.931 31.6936 131.157 32.4249 130.264 33.0737C129.155 33.8579 127.988 34.431 126.733 34.8532C125.478 35.2453 124.224 35.4565 122.969 35.4565C121.714 35.4565 120.547 35.2453 119.409 34.8532C118.27 34.4611 117.249 33.8579 116.315 33.0134C115.381 32.199 114.652 31.1434 114.068 29.8766C113.514 28.6098 113.105 27.1621 113.018 25.5032C113.018 25.4128 113.018 25.3826 113.018 25.2318C113.018 25.081 113.018 24.9905 113.018 24.9905C113.018 22.7887 113.514 20.8886 114.477 19.3202C115.44 17.7518 116.695 16.5453 118.183 15.7611C119.7 14.9769 121.218 14.5547 122.764 14.5547C127.402 14.5547 130.703 16.8495 132.666 21.439Z" fill="#040B1D"/>
</svg>
