<svg width="140" height="64" viewBox="0 0 140 64" fill="none" xmlns="http://www.w3.org/2000/svg">
  <path d="M12.0625 53.4922C12.0625 53.293 12.0312 53.1172 11.9688 52.9648C11.9102 52.8086 11.8047 52.668 11.6523 52.543C11.5039 52.418 11.2969 52.2988 11.0312 52.1855C10.7695 52.0723 10.4375 51.957 10.0352 51.8398C9.61328 51.7148 9.23242 51.5762 8.89258 51.4238C8.55273 51.2676 8.26172 51.0898 8.01953 50.8906C7.77734 50.6914 7.5918 50.4629 7.46289 50.2051C7.33398 49.9473 7.26953 49.6523 7.26953 49.3203C7.26953 48.9883 7.33789 48.6816 7.47461 48.4004C7.61133 48.1191 7.80664 47.875 8.06055 47.668C8.31836 47.457 8.625 47.293 8.98047 47.1758C9.33594 47.0586 9.73242 47 10.1699 47C10.8105 47 11.3535 47.123 11.7988 47.3691C12.248 47.6113 12.5898 47.9297 12.8242 48.3242C13.0586 48.7148 13.1758 49.1328 13.1758 49.5781H12.0508C12.0508 49.2578 11.9824 48.9746 11.8457 48.7285C11.709 48.4785 11.502 48.2832 11.2246 48.1426C10.9473 47.998 10.5957 47.9258 10.1699 47.9258C9.76758 47.9258 9.43555 47.9863 9.17383 48.1074C8.91211 48.2285 8.7168 48.3926 8.58789 48.5996C8.46289 48.8066 8.40039 49.043 8.40039 49.3086C8.40039 49.4883 8.4375 49.6523 8.51172 49.8008C8.58984 49.9453 8.70898 50.0801 8.86914 50.2051C9.0332 50.3301 9.24023 50.4453 9.49023 50.5508C9.74414 50.6562 10.0469 50.7578 10.3984 50.8555C10.8828 50.9922 11.3008 51.1445 11.6523 51.3125C12.0039 51.4805 12.293 51.6699 12.5195 51.8809C12.75 52.0879 12.9199 52.3242 13.0293 52.5898C13.1426 52.8516 13.1992 53.1484 13.1992 53.4805C13.1992 53.8281 13.1289 54.1426 12.9883 54.4238C12.8477 54.7051 12.6465 54.9453 12.3848 55.1445C12.123 55.3438 11.8086 55.498 11.4414 55.6074C11.0781 55.7129 10.6719 55.7656 10.2227 55.7656C9.82812 55.7656 9.43945 55.7109 9.05664 55.6016C8.67773 55.4922 8.33203 55.3281 8.01953 55.1094C7.71094 54.8906 7.46289 54.6211 7.27539 54.3008C7.0918 53.9766 7 53.6016 7 53.1758H8.125C8.125 53.4688 8.18164 53.7207 8.29492 53.9316C8.4082 54.1387 8.5625 54.3105 8.75781 54.4473C8.95703 54.584 9.18164 54.6855 9.43164 54.752C9.68555 54.8145 9.94922 54.8457 10.2227 54.8457C10.6172 54.8457 10.9512 54.791 11.2246 54.6816C11.498 54.5723 11.7051 54.416 11.8457 54.2129C11.9902 54.0098 12.0625 53.7695 12.0625 53.4922Z" fill="#040B1D"/>
  <path d="M17.0137 54.875C17.2715 54.875 17.5098 54.8223 17.7285 54.7168C17.9473 54.6113 18.127 54.4668 18.2676 54.2832C18.4082 54.0957 18.4883 53.8828 18.5078 53.6445H19.5391C19.5195 54.0195 19.3926 54.3691 19.1582 54.6934C18.9277 55.0137 18.625 55.2734 18.25 55.4727C17.875 55.668 17.4629 55.7656 17.0137 55.7656C16.5371 55.7656 16.1211 55.6816 15.7656 55.5137C15.4141 55.3457 15.1211 55.1152 14.8867 54.8223C14.6562 54.5293 14.4824 54.1934 14.3652 53.8145C14.252 53.4316 14.1953 53.0273 14.1953 52.6016V52.3555C14.1953 51.9297 14.252 51.5273 14.3652 51.1484C14.4824 50.7656 14.6562 50.4277 14.8867 50.1348C15.1211 49.8418 15.4141 49.6113 15.7656 49.4434C16.1211 49.2754 16.5371 49.1914 17.0137 49.1914C17.5098 49.1914 17.9434 49.293 18.3145 49.4961C18.6855 49.6953 18.9766 49.9688 19.1875 50.3164C19.4023 50.6602 19.5195 51.0508 19.5391 51.4883H18.5078C18.4883 51.2266 18.4141 50.9902 18.2852 50.7793C18.1602 50.5684 17.9883 50.4004 17.7695 50.2754C17.5547 50.1465 17.3027 50.082 17.0137 50.082C16.6816 50.082 16.4023 50.1484 16.1758 50.2812C15.9531 50.4102 15.7754 50.5859 15.6426 50.8086C15.5137 51.0273 15.4199 51.2715 15.3613 51.541C15.3066 51.8066 15.2793 52.0781 15.2793 52.3555V52.6016C15.2793 52.8789 15.3066 53.1523 15.3613 53.4219C15.416 53.6914 15.5078 53.9355 15.6367 54.1543C15.7695 54.373 15.9473 54.5488 16.1699 54.6816C16.3965 54.8105 16.6777 54.875 17.0137 54.875Z" fill="#040B1D"/>
  <path d="M24.4961 54.5645V51.3008C24.4961 51.0508 24.4453 50.834 24.3438 50.6504C24.2461 50.4629 24.0977 50.3184 23.8984 50.2168C23.6992 50.1152 23.4531 50.0645 23.1602 50.0645C22.8867 50.0645 22.6465 50.1113 22.4395 50.2051C22.2363 50.2988 22.0762 50.4219 21.959 50.5742C21.8457 50.7266 21.7891 50.8906 21.7891 51.0664H20.7051C20.7051 50.8398 20.7637 50.6152 20.8809 50.3926C20.998 50.1699 21.166 49.9688 21.3848 49.7891C21.6074 49.6055 21.873 49.4609 22.1816 49.3555C22.4941 49.2461 22.8418 49.1914 23.2246 49.1914C23.6855 49.1914 24.0918 49.2695 24.4434 49.4258C24.7988 49.582 25.0762 49.8184 25.2754 50.1348C25.4785 50.4473 25.5801 50.8398 25.5801 51.3125V54.2656C25.5801 54.4766 25.5977 54.7012 25.6328 54.9395C25.6719 55.1777 25.7285 55.3828 25.8027 55.5547V55.6484H24.6719C24.6172 55.5234 24.5742 55.3574 24.543 55.1504C24.5117 54.9395 24.4961 54.7441 24.4961 54.5645ZM24.6836 51.8047L24.6953 52.5664H23.5996C23.291 52.5664 23.0156 52.5918 22.7734 52.6426C22.5312 52.6895 22.3281 52.7617 22.1641 52.8594C22 52.957 21.875 53.0801 21.7891 53.2285C21.7031 53.373 21.6602 53.543 21.6602 53.7383C21.6602 53.9375 21.7051 54.1191 21.7949 54.2832C21.8848 54.4473 22.0195 54.5781 22.1992 54.6758C22.3828 54.7695 22.6074 54.8164 22.873 54.8164C23.2051 54.8164 23.498 54.7461 23.752 54.6055C24.0059 54.4648 24.207 54.293 24.3555 54.0898C24.5078 53.8867 24.5898 53.6895 24.6016 53.498L25.0645 54.0195C25.0371 54.1836 24.9629 54.3652 24.8418 54.5645C24.7207 54.7637 24.5586 54.9551 24.3555 55.1387C24.1562 55.3184 23.918 55.4688 23.6406 55.5898C23.3672 55.707 23.0586 55.7656 22.7148 55.7656C22.2852 55.7656 21.9082 55.6816 21.584 55.5137C21.2637 55.3457 21.0137 55.1211 20.834 54.8398C20.6582 54.5547 20.5703 54.2363 20.5703 53.8848C20.5703 53.5449 20.6367 53.2461 20.7695 52.9883C20.9023 52.7266 21.0938 52.5098 21.3438 52.3379C21.5938 52.1621 21.8945 52.0293 22.2461 51.9395C22.5977 51.8496 22.9902 51.8047 23.4238 51.8047H24.6836Z" fill="#040B1D"/>
  <path d="M28.3691 50.6621V55.6484H27.2852V49.3086H28.3105L28.3691 50.6621ZM28.1113 52.2383L27.6602 52.2207C27.6641 51.7871 27.7285 51.3867 27.8535 51.0195C27.9785 50.6484 28.1543 50.3262 28.3809 50.0527C28.6074 49.7793 28.877 49.5684 29.1895 49.4199C29.5059 49.2676 29.8555 49.1914 30.2383 49.1914C30.5508 49.1914 30.832 49.2344 31.082 49.3203C31.332 49.4023 31.5449 49.5352 31.7207 49.7188C31.9004 49.9023 32.0371 50.1406 32.1309 50.4336C32.2246 50.7227 32.2715 51.0762 32.2715 51.4941V55.6484H31.1816V51.4824C31.1816 51.1504 31.1328 50.8848 31.0352 50.6855C30.9375 50.4824 30.7949 50.3359 30.6074 50.2461C30.4199 50.1523 30.1895 50.1055 29.916 50.1055C29.6465 50.1055 29.4004 50.1621 29.1777 50.2754C28.959 50.3887 28.7695 50.5449 28.6094 50.7441C28.4531 50.9434 28.3301 51.1719 28.2402 51.4297C28.1543 51.6836 28.1113 51.9531 28.1113 52.2383Z" fill="#040B1D"/>
  <path d="M41.3672 52.9004C41.3672 53.8691 41.1445 54.6484 40.6992 55.2383C40.2539 55.8242 39.6562 56.1172 38.9062 56.1172C38.1055 56.1172 37.4863 55.834 37.0488 55.2676L36.9961 56H36V47H37.084V50.3574C37.5215 49.8145 38.125 49.543 38.8945 49.543C39.6641 49.543 40.2676 49.834 40.7051 50.416C41.1465 50.998 41.3672 51.7949 41.3672 52.8066V52.9004ZM40.2832 52.7773C40.2832 52.0391 40.1406 51.4688 39.8555 51.0664C39.5703 50.6641 39.1602 50.4629 38.625 50.4629C37.9102 50.4629 37.3965 50.7949 37.084 51.459V54.2012C37.416 54.8652 37.9336 55.1973 38.6367 55.1973C39.1562 55.1973 39.5605 54.9961 39.8496 54.5938C40.1387 54.1914 40.2832 53.5859 40.2832 52.7773Z" fill="#7F90A1"/>
  <path d="M45.3691 56.1172C44.5098 56.1172 43.8105 55.8359 43.2715 55.2734C42.7324 54.707 42.4629 53.9512 42.4629 53.0059V52.8066C42.4629 52.1777 42.582 51.6172 42.8203 51.125C43.0625 50.6289 43.3984 50.2422 43.8281 49.9648C44.2617 49.6836 44.7305 49.543 45.2344 49.543C46.0586 49.543 46.6992 49.8145 47.1562 50.3574C47.6133 50.9004 47.8418 51.6777 47.8418 52.6895V53.1406H43.5469C43.5625 53.7656 43.7441 54.2715 44.0918 54.6582C44.4434 55.041 44.8887 55.2324 45.4277 55.2324C45.8105 55.2324 46.1348 55.1543 46.4004 54.998C46.666 54.8418 46.8984 54.6348 47.0977 54.377L47.7598 54.8926C47.2285 55.709 46.4316 56.1172 45.3691 56.1172ZM45.2344 50.4336C44.7969 50.4336 44.4297 50.5938 44.1328 50.9141C43.8359 51.2305 43.6523 51.6758 43.582 52.25H46.7578V52.168C46.7266 51.6172 46.5781 51.1914 46.3125 50.8906C46.0469 50.5859 45.6875 50.4336 45.2344 50.4336Z" fill="#7F90A1"/>
  <path d="M50.5723 48.125V49.6602H51.7559V50.498H50.5723V54.4297C50.5723 54.6836 50.625 54.875 50.7305 55.0039C50.8359 55.1289 51.0156 55.1914 51.2695 55.1914C51.3945 55.1914 51.5664 55.168 51.7852 55.1211V56C51.5 56.0781 51.2227 56.1172 50.9531 56.1172C50.4688 56.1172 50.1035 55.9707 49.8574 55.6777C49.6113 55.3848 49.4883 54.9688 49.4883 54.4297V50.498H48.334V49.6602H49.4883V48.125H50.5723Z" fill="#7F90A1"/>
  <path d="M56.9414 56C56.8789 55.875 56.8281 55.6523 56.7891 55.332C56.2852 55.8555 55.6836 56.1172 54.9844 56.1172C54.3594 56.1172 53.8457 55.9414 53.4434 55.5898C53.0449 55.2344 52.8457 54.7852 52.8457 54.2422C52.8457 53.582 53.0957 53.0703 53.5957 52.707C54.0996 52.3398 54.8066 52.1562 55.7168 52.1562H56.7715V51.6582C56.7715 51.2793 56.6582 50.9785 56.4316 50.7559C56.2051 50.5293 55.8711 50.416 55.4297 50.416C55.043 50.416 54.7188 50.5137 54.457 50.709C54.1953 50.9043 54.0645 51.1406 54.0645 51.418H52.9746C52.9746 51.1016 53.0859 50.7969 53.3086 50.5039C53.5352 50.207 53.8398 49.9727 54.2227 49.8008C54.6094 49.6289 55.0332 49.543 55.4941 49.543C56.2246 49.543 56.7969 49.7266 57.2109 50.0938C57.625 50.457 57.8398 50.959 57.8555 51.5996V54.5176C57.8555 55.0996 57.9297 55.5625 58.0781 55.9062V56H56.9414ZM55.1426 55.1738C55.4824 55.1738 55.8047 55.0859 56.1094 54.9102C56.4141 54.7344 56.6348 54.5059 56.7715 54.2246V52.9238H55.9219C54.5938 52.9238 53.9297 53.3125 53.9297 54.0898C53.9297 54.4297 54.043 54.6953 54.2695 54.8867C54.4961 55.0781 54.7871 55.1738 55.1426 55.1738Z" fill="#7F90A1"/>
  <path fill-rule="evenodd" clip-rule="evenodd" d="M77.8038 39.9494C77.8038 40.4404 78.2495 40.8079 78.7176 40.6825C86.3352 38.6411 91.9545 31.5597 91.9545 23.1374C91.9545 13.1204 84.0056 5 74.2 5C64.3944 5 56.4455 13.1204 56.4455 23.1374C56.4455 31.7533 62.3262 38.966 70.2109 40.8153C70.6738 40.9238 71.1037 40.5582 71.1037 40.0765V35.7796C71.1037 35.4325 70.8749 35.1299 70.5493 35.0228C68.0522 34.2008 66.0326 32.7454 64.4903 30.6566C62.8471 28.4152 62.0255 25.8181 62.0255 22.8652C62.0255 18.9637 63.4604 15.7677 66.3303 13.2773C68.7141 11.2138 71.4277 10.1821 74.4711 10.1821C78.3939 10.1821 81.5588 11.6348 83.9658 14.5403C85.9099 16.8883 86.8819 19.5981 86.8819 22.6696C86.8819 25.6817 86.0198 28.3796 84.2956 30.7633C82.8495 32.7761 80.8699 34.1959 78.357 35.0226C78.0318 35.1296 77.8038 35.432 77.8038 35.7786V39.9494ZM77.5781 25.5962C77.5781 25.1686 77.2362 24.822 76.8145 24.822H72.1103C71.6886 24.822 71.3467 25.1686 71.3467 25.5962V25.8899C71.3467 26.5464 70.6125 26.8714 70.246 26.3301C69.5911 25.3632 69.2637 24.2201 69.2637 22.9008C69.2637 21.3947 69.7787 20.0903 70.8086 18.9874C71.8385 17.8845 73.0593 17.3331 74.4711 17.3331C75.8713 17.3331 77.0863 17.8845 78.1162 18.9874C79.1461 20.0903 79.661 21.3947 79.661 22.9008C79.661 24.18 79.3375 25.3071 78.6903 26.2823C78.3249 26.8329 77.5781 26.5105 77.5781 25.8469V25.5962Z" fill="#15ADFF"/>
  <path d="M7 16.2881C7 15.8605 7.34189 15.5139 7.76364 15.5139H13.9616C14.3833 15.5139 14.7252 15.8605 14.7252 16.2881V26.7113C14.7252 27.199 14.8312 27.5843 15.0432 27.867C15.2553 28.1427 15.5152 28.2806 15.823 28.2806C16.1376 28.2806 16.4522 28.1321 16.7668 27.8352C17.0883 27.5313 17.249 27.1566 17.249 26.7113V16.2881C17.249 15.8605 17.5909 15.5139 18.0126 15.5139H24.3029C24.7246 15.5139 25.0665 15.8605 25.0665 16.2881V27.0188C25.0665 28.7931 24.6254 30.3306 23.7431 31.6313C22.8676 32.932 21.7186 33.9146 20.296 34.5791C18.8802 35.2436 17.3892 35.5758 15.823 35.5758C14.7081 35.5758 13.6206 35.3956 12.5605 35.0351C11.5004 34.6675 10.5497 34.1232 9.70844 33.4021C8.87402 32.674 8.21401 31.7727 7.72841 30.6982C7.2428 29.6237 7 28.3972 7 27.0188V16.2881Z" fill="#040B1D"/>
  <path d="M27.6502 34.453C27.2284 34.453 26.8865 34.1064 26.8865 33.6788V22.0681C26.8865 20.5058 27.3072 19.1698 28.1484 18.0599C28.9965 16.943 30.1148 16.1018 31.5032 15.5363C32.8916 14.9707 34.3621 14.688 35.9147 14.688C37.5014 14.688 39.0095 14.9849 40.439 15.5787C41.8753 16.1654 43.0346 17.0455 43.9169 18.219C44.806 19.3924 45.2506 20.778 45.2506 22.3756V33.6788C45.2506 34.1064 44.9087 34.453 44.4869 34.453H37.8991C37.4774 34.453 37.1355 34.1064 37.1355 33.6788V22.8951C37.1355 22.471 37.0192 22.1564 36.7867 21.9514C36.561 21.7394 36.3011 21.6333 36.007 21.6333C35.6787 21.6333 35.3641 21.7606 35.0631 22.015C34.7622 22.2625 34.6117 22.5558 34.6117 22.8951V33.6788C34.6117 34.1064 34.2698 34.453 33.8481 34.453H27.6502Z" fill="#040B1D"/>
  <path d="M47.8239 34.453C47.4022 34.453 47.0603 34.1064 47.0603 33.6788V15.6848C47.0603 15.2573 47.4022 14.9106 47.8239 14.9106H54.3297C54.7514 14.9106 55.0933 15.2573 55.0933 15.6848V33.6788C55.0933 34.1064 54.7514 34.453 54.3297 34.453H47.8239Z" fill="#040B1D"/>
  <path d="M93.454 16.2881C93.454 15.8605 93.7959 15.5139 94.2176 15.5139H100.416C100.837 15.5139 101.179 15.8605 101.179 16.2881V26.7113C101.179 27.199 101.285 27.5843 101.497 27.867C101.709 28.1427 101.969 28.2806 102.277 28.2806C102.592 28.2806 102.906 28.1321 103.221 27.8352C103.542 27.5313 103.703 27.1566 103.703 26.7113V16.2881C103.703 15.8605 104.045 15.5139 104.467 15.5139H110.757C111.179 15.5139 111.521 15.8605 111.521 16.2881V27.0188C111.521 28.7931 111.079 30.3306 110.197 31.6313C109.322 32.932 108.173 33.9146 106.75 34.5791C105.334 35.2436 103.843 35.5758 102.277 35.5758C101.162 35.5758 100.075 35.3956 99.0145 35.0351C97.9544 34.6675 97.0037 34.1232 96.1624 33.4021C95.328 32.674 94.668 31.7727 94.1824 30.6982C93.6968 29.6237 93.454 28.3972 93.454 27.0188V16.2881Z" fill="#040B1D"/>
  <path d="M132.666 21.4392C132.818 21.7943 132.671 22.2053 132.337 22.3934L124.008 27.0914C123.643 27.2977 123.181 27.167 122.974 26.7983L121.748 24.6191C121.537 24.2432 121.671 23.7646 122.045 23.5567L124.39 22.2546C124.833 22.0081 124.904 21.3913 124.42 21.2395C124.188 21.1665 123.936 21.13 123.669 21.13C122.823 21.13 121.977 21.5221 121.13 22.2761C120.955 22.4269 120.167 23.0302 119.934 23.6635C119.788 24.0255 119.817 24.3573 119.846 24.5684C119.875 24.8398 120.663 27.0416 121.335 27.8258C122.035 28.6402 122.823 29.0323 123.757 29.0323C125.113 29.0323 126.585 28.2616 128.112 26.7202C128.419 26.4102 128.917 26.3923 129.227 26.6994L132.468 29.9115C132.73 30.1714 132.776 30.5857 132.551 30.8798C131.931 31.6937 131.157 32.4251 130.264 33.0739C129.155 33.8581 127.988 34.4311 126.733 34.8534C125.478 35.2455 124.224 35.4566 122.969 35.4566C121.714 35.4566 120.547 35.2455 119.409 34.8534C118.27 34.4613 117.249 33.8581 116.315 33.0135C115.381 32.1992 114.652 31.1435 114.068 29.8768C113.514 28.61 113.105 27.1623 113.018 25.5034C113.018 25.4129 113.018 25.3827 113.018 25.2319C113.018 25.0811 113.018 24.9906 113.018 24.9906C113.018 22.7889 113.514 20.8887 114.477 19.3203C115.44 17.7519 116.695 16.5455 118.183 15.7613C119.7 14.9771 121.218 14.5548 122.764 14.5548C127.402 14.5548 130.703 16.8496 132.666 21.4392Z" fill="#040B1D"/>
</svg>
