<svg width="16" height="16" viewBox="0 0 16 16" fill="none" xmlns="http://www.w3.org/2000/svg">
    <path fill-rule="evenodd" clip-rule="evenodd" d="M8 2C8.27614 2 8.5 2.22386 8.5 2.5V13.5C8.5 13.7761 8.27614 14 8 14C7.72386 14 7.5 13.7761 7.5 13.5V2.5C7.5 2.22386 7.72386 2 8 2Z" fill="#9CAAB7" />
    <path fill-rule="evenodd" clip-rule="evenodd" d="M3.14645 8.64645C3.34171 8.45118 3.65829 8.45118 3.85355 8.64645L8 12.7929L12.1464 8.64645C12.3417 8.45118 12.6583 8.45118 12.8536 8.64645C13.0488 8.84171 13.0488 9.15829 12.8536 9.35355L8.35355 13.8536C8.15829 14.0488 7.84171 14.0488 7.64645 13.8536L3.14645 9.35355C2.95118 9.15829 2.95118 8.84171 3.14645 8.64645Z" fill="#9CAAB7" />
</svg>
