<svg width="25" height="24" viewBox="0 0 25 24" fill="none" xmlns="http://www.w3.org/2000/svg">
<path fill-rule="evenodd" clip-rule="evenodd" d="M3.75 4.5C3.75 3.67157 4.42157 3 5.25 3H20.25C21.0784 3 21.75 3.67157 21.75 4.5V19.5C21.75 20.3284 21.0784 21 20.25 21H5.25C4.42157 21 3.75 20.3284 3.75 19.5V4.5ZM20.25 4.5H5.25V19.5H20.25V4.5Z" fill="#009CF0"/>
<path fill-rule="evenodd" clip-rule="evenodd" d="M17.25 1.5C17.6642 1.5 18 1.83579 18 2.25V5.25C18 5.66421 17.6642 6 17.25 6C16.8358 6 16.5 5.66421 16.5 5.25V2.25C16.5 1.83579 16.8358 1.5 17.25 1.5Z" fill="#009CF0"/>
<path fill-rule="evenodd" clip-rule="evenodd" d="M8.25 1.5C8.66421 1.5 9 1.83579 9 2.25V5.25C9 5.66421 8.66421 6 8.25 6C7.83579 6 7.5 5.66421 7.5 5.25V2.25C7.5 1.83579 7.83579 1.5 8.25 1.5Z" fill="#009CF0"/>
<path fill-rule="evenodd" clip-rule="evenodd" d="M3.75 8.25C3.75 7.83579 4.08579 7.5 4.5 7.5H21C21.4142 7.5 21.75 7.83579 21.75 8.25C21.75 8.66421 21.4142 9 21 9H4.5C4.08579 9 3.75 8.66421 3.75 8.25Z" fill="#009CF0"/>
</svg>
