<svg viewBox="0 0 24 24" fill="none" xmlns="http://www.w3.org/2000/svg">
    <path d="M8.03858 3.35612C9.63207 3.35612 10.9238 2.60483 10.9238 1.67806C10.9238 0.751293 9.63207 0 8.03858 0C6.4451 0 5.15332 0.751293 5.15332 1.67806C5.15332 2.60483 6.4451 3.35612 8.03858 3.35612Z" fill="#E6007A"/>
    <path d="M8.03858 16.0006C9.63207 16.0006 10.9238 15.2494 10.9238 14.3226C10.9238 13.3958 9.63207 12.6445 8.03858 12.6445C6.4451 12.6445 5.15332 13.3958 5.15332 14.3226C5.15332 15.2494 6.4451 16.0006 8.03858 16.0006Z" fill="#E6007A"/>
    <path d="M4.0175 5.6786C4.81424 4.29864 4.80907 2.80406 4.00595 2.34037C3.20283 1.87667 1.90588 2.61945 1.10914 3.99941C0.312392 5.37937 0.317563 6.87395 1.12069 7.33764C1.92381 7.80134 3.22076 7.05856 4.0175 5.6786Z" fill="#E6007A"/>
    <path d="M14.9662 11.9997C15.763 10.6198 15.7582 9.12545 14.9557 8.66206C14.1531 8.19868 12.8566 8.94171 12.0598 10.3217C11.2631 11.7016 11.2678 13.196 12.0704 13.6593C12.873 14.1227 14.1695 13.3797 14.9662 11.9997Z" fill="#E6007A"/>
    <path d="M4.00644 13.6596C4.80956 13.1959 4.81473 11.7014 4.01799 10.3214C3.22124 8.94144 1.9243 8.19866 1.12117 8.66236C0.318052 9.12605 0.312881 10.6206 1.10962 12.0006C1.90637 13.3806 3.20332 14.1233 4.00644 13.6596Z" fill="#E6007A"/>
    <path d="M14.9566 7.33794C15.7592 6.87455 15.7639 5.38023 14.9672 4.00027C14.1705 2.62031 12.8739 1.87727 12.0714 2.34066C11.2688 2.80404 11.2641 4.29837 12.0608 5.67833C12.8575 7.05829 14.154 7.80132 14.9566 7.33794Z" fill="#E6007A"/>
</svg>
