<svg width="17" height="16" viewBox="0 0 17 16" fill="none" xmlns="http://www.w3.org/2000/svg">
<path fill-rule="evenodd" clip-rule="evenodd" d="M12.1093 5.95659C12.3205 6.17785 12.3123 6.52843 12.0911 6.73963L8.02951 10.6166C7.81549 10.8208 7.47869 10.8208 7.26467 10.6166L5.23393 8.67809C5.01267 8.46689 5.00452 8.1163 5.21572 7.89505C5.42693 7.67379 5.77751 7.66563 5.99877 7.87684L7.6471 9.45026L11.3262 5.93837C11.5475 5.72717 11.8981 5.73533 12.1093 5.95659Z" fill="#040B1D"/>
<path fill-rule="evenodd" clip-rule="evenodd" d="M8.66094 1.90847C5.29625 1.90847 2.56863 4.63609 2.56863 8.00078C2.56863 11.3655 5.29625 14.0931 8.66094 14.0931C12.0256 14.0931 14.7532 11.3655 14.7532 8.00078C14.7532 4.63609 12.0256 1.90847 8.66094 1.90847ZM1.46094 8.00078C1.46094 4.02433 4.68449 0.800781 8.66094 0.800781C12.6374 0.800781 15.8609 4.02433 15.8609 8.00078C15.8609 11.9772 12.6374 15.2008 8.66094 15.2008C4.68449 15.2008 1.46094 11.9772 1.46094 8.00078Z" fill="#040B1D"/>
</svg>
