<svg width="17" height="16" viewBox="0 0 17 16" fill="none" xmlns="http://www.w3.org/2000/svg">
<path fill-rule="evenodd" clip-rule="evenodd" d="M2 3.66666C2 3.11437 2.44772 2.66666 3 2.66666H14C14.5523 2.66666 15 3.11437 15 3.66666V12.6667C15 13.2189 14.5523 13.6667 14 13.6667H3C2.44772 13.6667 2 13.2189 2 12.6667V3.66666ZM14 3.66666H3V12.6667H14V3.66666Z" fill="#9CAAB7"/>
<path fill-rule="evenodd" clip-rule="evenodd" d="M5.61731 6.40943C5.73863 6.35918 5.86867 6.33331 5.99999 6.33331C6.13131 6.33331 6.26135 6.35918 6.38267 6.40943C6.504 6.45969 6.61424 6.53335 6.7071 6.62621L9.49999 9.4191L10.7929 8.12621C10.8857 8.03335 10.996 7.95969 11.1173 7.90943C11.2386 7.85918 11.3687 7.83331 11.5 7.83331C11.6313 7.83331 11.7613 7.85918 11.8827 7.90943C12.004 7.95969 12.1142 8.03335 12.2071 8.12621L14.8535 10.7727C14.9473 10.8664 15 10.9936 15 11.1262V12.6262C15 12.9023 14.7761 13.1262 14.5 13.1262H2.5C2.22386 13.1262 2 12.9023 2 12.6262V10.1262C2 9.99359 2.05268 9.86641 2.14645 9.77264L5.29288 6.62621C5.38574 6.53335 5.49598 6.45969 5.61731 6.40943ZM3 10.3333V12.8541H14V11.3333L11.5 8.83331L10.2071 10.1262C10.1142 10.2191 10.004 10.2927 9.88267 10.343C9.76135 10.3932 9.63131 10.4191 9.49999 10.4191C9.36867 10.4191 9.23863 10.3932 9.11731 10.343C8.99598 10.2927 8.88574 10.2191 8.79288 10.1262L5.99999 7.33331L3 10.3333Z" fill="#9CAAB7"/>
<path d="M10.25 7C10.6642 7 11 6.66421 11 6.25C11 5.83579 10.6642 5.5 10.25 5.5C9.83579 5.5 9.5 5.83579 9.5 6.25C9.5 6.66421 9.83579 7 10.25 7Z" fill="#9CAAB7"/>
</svg>
