<svg width="32" height="32" viewBox="0 0 32 32" fill="none" xmlns="http://www.w3.org/2000/svg">
    <path fill-rule="evenodd" clip-rule="evenodd" d="M11 9C11 8.44772 11.4477 8 12 8H28C28.5523 8 29 8.44772 29 9C29 9.55228 28.5523 10 28 10H12C11.4477 10 11 9.55228 11 9Z" fill="white"/>
    <path fill-rule="evenodd" clip-rule="evenodd" d="M3 23C3 22.4477 3.44772 22 4 22H20C20.5523 22 21 22.4477 21 23C21 23.5523 20.5523 24 20 24H4C3.44772 24 3 23.5523 3 23Z" fill="white"/>
    <path fill-rule="evenodd" clip-rule="evenodd" d="M3 9C3 6.23856 5.23857 4 8 4C10.7614 4 13 6.23856 13 9C13 11.7633 10.7612 14 8 14C5.23883 14 3 11.7633 3 9ZM8 6C6.34313 6 5 7.34313 5 9C5 10.6582 6.34287 12 8 12C9.65713 12 11 10.6582 11 9C11 7.34313 9.65687 6 8 6Z" fill="white"/>
    <path fill-rule="evenodd" clip-rule="evenodd" d="M19 23C19 20.2386 21.2386 18 24 18C26.7614 18 29 20.2386 29 23C29 25.7633 26.7612 28 24 28C21.2388 28 19 25.7633 19 23ZM24 20C22.3431 20 21 21.3431 21 23C21 24.6582 22.3429 26 24 26C25.6571 26 27 24.6582 27 23C27 21.3431 25.6569 20 24 20Z" fill="white"/>
</svg>