<svg width="16" height="16" viewBox="0 0 16 16" fill="none" xmlns="http://www.w3.org/2000/svg">
    <path d="M10.9989 7.5C10.8663 7.50001 10.7391 7.55269 10.6453 7.64645C10.5516 7.74022 10.4989 7.86739 10.4989 8C10.5023 9.88981 10.1343 11.7619 9.41557 13.5097C9.39057 13.5704 9.37778 13.6355 9.37793 13.7012C9.37808 13.7669 9.39117 13.8319 9.41646 13.8925C9.44174 13.9531 9.47872 14.0082 9.52528 14.0545C9.57184 14.1008 9.62707 14.1375 9.68782 14.1625C9.74857 14.1875 9.81365 14.2002 9.87933 14.2001C9.94502 14.1999 10.01 14.1868 10.0706 14.1614C10.1312 14.1361 10.1863 14.0991 10.2326 14.0526C10.2789 14.006 10.3156 13.9507 10.3405 13.89C11.1089 12.0215 11.5025 10.0203 11.4989 8C11.4989 7.86739 11.4462 7.74022 11.3524 7.64645C11.2587 7.55269 11.1315 7.50001 10.9989 7.5Z" fill="#9CAAB7"/>
    <path d="M7.99893 5.5C8.35064 5.50025 8.69834 5.57458 9.0194 5.71816C9.34046 5.86174 9.62768 6.07134 9.86234 6.33331C9.90611 6.38231 9.95911 6.4222 10.0183 6.4507C10.0775 6.4792 10.1418 6.49576 10.2074 6.49942C10.273 6.50308 10.3386 6.49377 10.4006 6.47204C10.4626 6.4503 10.5198 6.41656 10.5687 6.37273C10.6177 6.32891 10.6575 6.27587 10.6859 6.21664C10.7144 6.15742 10.7309 6.09316 10.7345 6.02756C10.7381 5.96195 10.7287 5.89628 10.7069 5.8343C10.6851 5.77231 10.6513 5.71523 10.6075 5.66632C10.1348 5.13808 9.51299 4.76577 8.82417 4.59866C8.13535 4.43156 7.41202 4.47752 6.74989 4.73048C6.08776 4.98344 5.51804 5.43146 5.1161 6.01528C4.71416 6.5991 4.49894 7.2912 4.49893 8C4.49926 9.4396 4.13418 10.8557 3.4379 12.1157C3.406 12.1732 3.38573 12.2363 3.37825 12.3016C3.37077 12.3668 3.37622 12.4329 3.3943 12.4961C3.41237 12.5592 3.44271 12.6182 3.48358 12.6696C3.52445 12.721 3.57506 12.7639 3.6325 12.7958C3.68995 12.8276 3.75311 12.8478 3.81837 12.8553C3.88364 12.8627 3.94973 12.8572 4.01287 12.8391C4.07601 12.821 4.13496 12.7906 4.18636 12.7497C4.23776 12.7088 4.28059 12.6582 4.31241 12.6007C5.09089 11.1923 5.49914 9.60927 5.49893 8C5.49969 7.33719 5.76333 6.70175 6.232 6.23307C6.70068 5.76439 7.33612 5.50076 7.99893 5.5Z" fill="#9CAAB7"/>
    <path d="M4.33221 3.90005C4.38117 3.85627 4.42103 3.80328 4.4495 3.74409C4.47798 3.6849 4.49452 3.62069 4.49817 3.55511C4.50182 3.48953 4.49251 3.42388 4.47078 3.3619C4.44905 3.29992 4.41532 3.24283 4.37152 3.19389C4.32772 3.14495 4.2747 3.10512 4.2155 3.07667C4.1563 3.04822 4.09208 3.03172 4.0265 3.0281C3.96092 3.02449 3.89527 3.03382 3.8333 3.05559C3.77133 3.07735 3.71426 3.1111 3.66534 3.15493C2.9842 3.76502 2.43923 4.51176 2.06593 5.34651C1.69263 6.18127 1.49939 7.0853 1.49878 7.99972C1.50069 8.79063 1.3306 9.57251 1.0003 10.2912C0.972864 10.3508 0.957453 10.4153 0.954952 10.481C0.952451 10.5466 0.962909 10.6121 0.985727 10.6737C1.00855 10.7353 1.04328 10.7918 1.08794 10.84C1.1326 10.8881 1.18632 10.927 1.24601 10.9544C1.30571 10.9818 1.37023 10.9972 1.43587 10.9996C1.50151 11.0021 1.56699 10.9916 1.62857 10.9687C1.69015 10.9459 1.74662 10.9111 1.79476 10.8664C1.8429 10.8217 1.88176 10.768 1.90912 10.7083C2.29972 9.85885 2.50093 8.93464 2.49878 7.99972C2.49932 7.22593 2.66287 6.46094 2.97877 5.75457C3.29466 5.0482 3.75582 4.41631 4.33221 3.90005Z" fill="#9CAAB7"/>
    <path d="M7.9987 1.5C7.26067 1.49915 6.52792 1.62428 5.83201 1.87C5.70708 1.91427 5.60485 2.00634 5.54777 2.12595C5.49069 2.24557 5.48344 2.38295 5.5276 2.50792C5.57177 2.63288 5.66374 2.73519 5.78331 2.79238C5.90288 2.84956 6.04026 2.85693 6.16526 2.81287C6.99497 2.5205 7.88268 2.43127 8.75399 2.55265C9.62529 2.67403 10.4548 3.00249 11.173 3.5105C11.8912 4.01851 12.4772 4.69127 12.8819 5.47241C13.2865 6.25354 13.498 7.12029 13.4987 8C13.4992 9.30852 13.3537 10.613 13.065 11.8893C13.0505 11.9533 13.0486 12.0196 13.0597 12.0844C13.0707 12.1491 13.0944 12.2111 13.1294 12.2667C13.1644 12.3223 13.2101 12.3704 13.2637 12.4084C13.3173 12.4463 13.3779 12.4733 13.4419 12.4879C13.506 12.5024 13.5723 12.5042 13.637 12.4931C13.7018 12.482 13.7637 12.4583 13.8193 12.4232C13.8748 12.3882 13.9229 12.3425 13.9609 12.2889C13.9988 12.2353 14.0258 12.1747 14.0403 12.1106C14.3454 10.7617 14.4992 9.38298 14.4987 8C14.4967 6.27669 13.8113 4.62453 12.5927 3.40596C11.3742 2.1874 9.722 1.50195 7.9987 1.5Z" fill="#9CAAB7"/>
    <path d="M7.11886 12.5455C6.99834 12.4903 6.8608 12.4851 6.73648 12.5312C6.61216 12.5773 6.51124 12.6709 6.4559 12.7914C6.33548 13.0537 6.20315 13.3152 6.06271 13.5686C5.99841 13.6846 5.98282 13.8213 6.01936 13.9488C6.05589 14.0763 6.14157 14.184 6.25754 14.2483C6.3735 14.3126 6.51026 14.3282 6.63773 14.2916C6.76519 14.2551 6.87293 14.1694 6.93722 14.0535C7.08993 13.7781 7.23379 13.4938 7.36471 13.2085C7.39211 13.1488 7.40748 13.0843 7.40995 13.0187C7.41242 12.9531 7.40194 12.8877 7.37911 12.8261C7.35628 12.7645 7.32155 12.7081 7.27689 12.6599C7.23224 12.6118 7.17854 12.5729 7.11886 12.5455Z" fill="#9CAAB7"/>
    <path d="M7.99821 7.5C7.8656 7.50001 7.73843 7.55269 7.64466 7.64645C7.55089 7.74022 7.49821 7.86739 7.49821 8C7.49872 8.96987 7.37699 9.93594 7.1359 10.8754C7.10285 11.0038 7.12216 11.1401 7.1896 11.2543C7.25703 11.3685 7.36707 11.4512 7.49549 11.4842C7.62391 11.5173 7.76021 11.498 7.87439 11.4305C7.98857 11.3631 8.07129 11.2531 8.10435 11.1246C8.36638 10.1038 8.49871 9.05395 8.49821 8C8.4982 7.86739 8.44552 7.74022 8.35175 7.64645C8.25799 7.55269 8.13081 7.50001 7.99821 7.5Z" fill="#9CAAB7"/>
</svg>
