<svg width="17" height="16" viewBox="0 0 17 16" fill="none" xmlns="http://www.w3.org/2000/svg">
<path fill-rule="evenodd" clip-rule="evenodd" d="M12.3248 9.2801C12.6285 9.32695 12.8362 9.60818 12.7888 9.90825C12.6523 10.7724 12.2414 11.5714 11.6155 12.1898C10.9896 12.8083 10.1811 13.2143 9.30651 13.3492C9.00284 13.396 8.71822 13.1908 8.6708 12.8907C8.62339 12.5906 8.83113 12.3094 9.13481 12.2625C9.7763 12.1636 10.3694 11.8658 10.8285 11.4121C11.2876 10.9585 11.5889 10.3725 11.6891 9.7386C11.7365 9.43853 12.0211 9.23325 12.3248 9.2801Z" fill="#040B1D"/>
<path fill-rule="evenodd" clip-rule="evenodd" d="M9.59565 0.546068C9.81479 0.344252 10.1563 0.350048 10.3683 0.559182C12.3885 2.55209 15.0656 5.44853 15.0656 9.27451C15.0656 10.9517 14.3913 12.5602 13.1911 13.7462C11.9909 14.9322 10.363 15.5984 8.66563 15.5984C6.96824 15.5984 5.34037 14.9322 4.14014 13.7462C2.93991 12.5602 2.26562 10.9517 2.26562 9.27451C2.26562 7.40476 3.21789 5.4646 4.30871 3.83972C4.47491 3.59215 4.81006 3.51978 5.06563 3.67628L5.0657 3.67632C5.07094 3.67953 5.07612 3.68282 5.08125 3.6862L7.32647 5.16522L9.47257 0.711977C9.50266 0.649541 9.5444 0.593273 9.59559 0.546124L9.59565 0.546068ZM10.136 1.89341L8.05504 6.2115C7.98561 6.35557 7.85627 6.46274 7.70059 6.50518C7.54491 6.54762 7.37825 6.52114 7.24388 6.43262L4.93503 4.91169C4.03074 6.3548 3.37867 7.88675 3.37867 9.27451C3.37867 10.66 3.93569 11.9888 4.92718 12.9685C5.91868 13.9482 7.26344 14.4986 8.66563 14.4986C10.0678 14.4986 11.4126 13.9482 12.4041 12.9685C13.3956 11.9888 13.9526 10.66 13.9526 9.27451C13.9526 6.24988 12.0207 3.82198 10.136 1.89341Z" fill="#040B1D"/>
</svg>
