<svg width="32" height="32" viewBox="0 0 32 32" 
  xmlns="http://www.w3.org/2000/svg" fill="none">
  <path d="M5.71429 19.4286H9.14286C10.0857 19.4286 10.8571 18.6571 10.8571 17.7143V14.2857C10.8571 13.3429 10.0857 12.5714 9.14286 12.5714H5.71429C4.77143 12.5714 4 13.3429 4 14.2857V17.7143C4 18.6571 4.77143 19.4286 5.71429 19.4286ZM5.71429 28H9.14286C10.0857 28 10.8571 27.2286 10.8571 26.2857V22.8571C10.8571 21.9143 10.0857 21.1429 9.14286 21.1429H5.71429C4.77143 21.1429 4 21.9143 4 22.8571V26.2857C4 27.2286 4.77143 28 5.71429 28ZM5.71429 10.8571H9.14286C10.0857 10.8571 10.8571 10.0857 10.8571 9.14286V5.71429C10.8571 4.77143 10.0857 4 9.14286 4H5.71429C4.77143 4 4 4.77143 4 5.71429V9.14286C4 10.0857 4.77143 10.8571 5.71429 10.8571Z" fill="#9CAAB7" />
  <path d="M13.2308 19.4286H26.7692C27.4462 19.4286 28 18.6571 28 17.7143V14.2857C28 13.3429 27.4462 12.5714 26.7692 12.5714H13.2308C12.5538 12.5714 12 13.3429 12 14.2857V17.7143C12 18.6571 12.5538 19.4286 13.2308 19.4286ZM13.2308 28H26.7692C27.4462 28 28 27.2286 28 26.2857V22.8571C28 21.9143 27.4462 21.1429 26.7692 21.1429H13.2308C12.5538 21.1429 12 21.9143 12 22.8571V26.2857C12 27.2286 12.5538 28 13.2308 28ZM12 5.71429V9.14286C12 10.0857 12.5538 10.8571 13.2308 10.8571H26.7692C27.4462 10.8571 28 10.0857 28 9.14286V5.71429C28 4.77143 27.4462 4 26.7692 4H13.2308C12.5538 4 12 4.77143 12 5.71429Z" fill="#9CAAB7" />
</svg>
