<svg width="32" height="32" viewBox="0 0 32 32" fill="none" xmlns="http://www.w3.org/2000/svg">
<path fill-rule="evenodd" clip-rule="evenodd" d="M4 20.3335C4 19.2289 4.89543 18.3335 6 18.3335H26C27.1046 18.3335 28 19.2289 28 20.3335V25.3335C28 26.4381 27.1046 27.3335 26 27.3335H6C4.89543 27.3335 4 26.4381 4 25.3335V20.3335ZM26 20.3335H6V25.3335H26V20.3335Z" fill="#9CAAB7"/>
<path fill-rule="evenodd" clip-rule="evenodd" d="M4 6.66675C4 5.56218 4.89543 4.66675 6 4.66675H26C27.1046 4.66675 28 5.56218 28 6.66675V11.6667C28 12.7713 27.1046 13.6667 26 13.6667H6C4.89543 13.6667 4 12.7713 4 11.6667V6.66675ZM26 6.66675H6V11.6667H26V6.66675Z" fill="#9CAAB7"/>
</svg>
