<svg width="80" height="80" viewBox="0 0 80 80" fill="none" xmlns="http://www.w3.org/2000/svg">
<g clip-path="url(#clip0_1259_10876)">
<ellipse cx="53" cy="79" rx="13" ry="1" fill="#006499"/>
<circle cx="32" cy="48" r="18" fill="#006499"/>
<path d="M47 48C47 56.2843 40.2843 63 32 63C23.7157 63 17 56.2843 17 48C17 39.7157 23.7157 33 32 33C40.2843 33 47 39.7157 47 48Z" fill="#66CAFF"/>
<path d="M21.5917 51.4051C20.9424 51.5863 20.2652 51.1991 20.1598 50.5332C19.9683 49.3234 19.9485 48.0885 20.1027 46.8684C20.3084 45.2409 20.8198 43.6716 21.6077 42.25C22.3956 40.8284 23.4446 39.5824 24.6949 38.5831C25.6093 37.8522 26.6183 37.2637 27.6899 36.8341C28.3381 36.5742 29.0371 36.9816 29.2111 37.658C29.3801 38.3151 28.988 38.979 28.3639 39.2451C27.5765 39.5807 26.8337 40.0247 26.1559 40.5665C25.1557 41.3659 24.3165 42.3627 23.6862 43.5C23.0558 44.6373 22.6467 45.8928 22.4821 47.1947C22.367 48.1056 22.3732 49.0267 22.499 49.9323C22.5891 50.581 22.2225 51.229 21.5917 51.4051Z" fill="#C7EBFF"/>
<rect x="42.4041" y="61.1602" width="4.10418" height="5.47224" transform="rotate(-45 42.4041 61.1602)" fill="#006499"/>
<path d="M44.6947 65.484C43.9527 64.697 43.9708 63.4626 44.7357 62.6978L46.8261 60.6074C47.5909 59.8426 48.8253 59.8244 49.6123 60.5664L62.142 72.3802C63.7768 73.9216 63.8149 76.509 62.2261 78.0978C60.6373 79.6866 58.0499 79.6485 56.5085 78.0137L44.6947 65.484Z" fill="#15ADFF"/>
<path fill-rule="evenodd" clip-rule="evenodd" d="M53.9709 0.500582C54.2468 0.487383 54.4811 0.700284 54.4943 0.976111C54.6083 3.35856 53.0173 5.748 50.6941 7.87923C51.6566 8.2016 52.4588 8.63903 52.9902 9.22412C53.3781 9.65114 53.6234 10.1595 53.6699 10.7441C53.7159 11.3224 53.564 11.9317 53.2356 12.5634C52.5861 13.8124 51.1978 15.2414 48.9577 16.8798C46.539 18.6487 44.4061 19.9686 42.5471 20.9306C42.8132 21.2608 42.9758 21.6226 43.0368 22.0068C43.1082 22.4565 43.0349 22.9025 42.8758 23.3233C42.5626 24.1514 41.8924 24.9464 41.1419 25.6335C40.3826 26.3286 39.4984 26.9517 38.6985 27.4293C38.4614 27.5709 38.1544 27.4934 38.0129 27.2563C37.8713 27.0192 37.9488 26.7123 38.1858 26.5707C38.9412 26.1197 39.7678 25.5357 40.4666 24.8959C41.1741 24.2482 41.7093 23.5807 41.9404 22.9696C42.0535 22.6707 42.0871 22.4029 42.0492 22.1635C42.0119 21.9287 41.9006 21.6874 41.6674 21.4431C41.6514 21.4264 41.6349 21.4096 41.6178 21.3929C40.4208 21.9639 39.3487 22.3775 38.3981 22.6621C37.1015 23.0502 36.018 23.2021 35.1437 23.1786C34.2754 23.1552 33.5786 22.9572 33.0948 22.6077C32.5965 22.2478 32.3307 21.7247 32.3913 21.1512C32.4494 20.6004 32.7974 20.1042 33.3065 19.7297C34.3271 18.979 36.126 18.6007 38.5398 19.0811C39.9483 19.3614 41.002 19.7422 41.7383 20.2205C43.6183 19.2764 45.823 17.9336 48.3673 16.0726C50.5708 14.461 51.8071 13.143 52.3483 12.102C52.6152 11.5887 52.7004 11.1673 52.673 10.8234C52.6462 10.4858 52.5079 10.1804 52.25 9.89645C51.7893 9.38928 50.9589 8.96574 49.8029 8.6555C47.1893 10.8225 43.7747 12.7751 40.3609 14.2371C36.8058 15.7596 33.2042 16.7703 30.4637 16.9186C29.1005 16.9924 27.8882 16.8567 26.9968 16.4093C26.5437 16.1819 26.1634 15.8686 25.8981 15.4539C25.6318 15.0377 25.5 14.5483 25.5 14C25.5 12.8284 26.2945 11.8373 27.4109 11.0345C28.5415 10.2214 30.1066 9.52253 31.8873 8.94894C35.4538 7.80008 40.0036 7.11654 43.9918 7.07741C45.9865 7.05785 47.8589 7.19921 49.4081 7.5323C49.4543 7.54223 49.5003 7.55236 49.5461 7.56267C52.0917 5.35996 53.5938 3.08019 53.4954 1.02391C53.4822 0.748084 53.6951 0.513782 53.9709 0.500582ZM48.5433 8.38465C47.2197 8.1603 45.6674 8.06102 44.0016 8.07737C40.1024 8.11562 35.6538 8.78623 32.1939 9.90077C30.4613 10.4589 29.0061 11.119 27.9947 11.8463C26.9691 12.5839 26.5 13.3145 26.5 14C26.5 14.3835 26.5904 14.6804 26.7405 14.915C26.8915 15.1511 27.1217 15.3531 27.4454 15.5156C28.1076 15.848 29.1136 15.9902 30.4097 15.9201C32.9877 15.7806 36.468 14.8165 39.9672 13.3179C43.0501 11.9976 46.1108 10.2782 48.5433 8.38465ZM40.6265 20.7503C40.0729 20.4945 39.3285 20.2577 38.3446 20.0618C36.0925 19.6136 34.6142 20.0092 33.899 20.5352C33.5403 20.7991 33.4057 21.067 33.3857 21.2562C33.3682 21.4226 33.4287 21.6154 33.6803 21.7971C33.9463 21.9892 34.4229 22.1588 35.1706 22.179C35.9124 22.1989 36.8875 22.0704 38.1113 21.7041C38.8605 21.4798 39.6982 21.1678 40.6265 20.7503Z" fill="#009CF0"/>
<path fill-rule="evenodd" clip-rule="evenodd" d="M19.6109 19.971L18.5 18L17.389 19.971L15.1713 20.4184L16.7025 22.084L16.4427 24.3316L18.5 23.39L20.5572 24.3316L20.2975 22.084L21.8287 20.4184L19.6109 19.971ZM19.8917 21.0478L18.9645 20.8607L18.5 20.0366L18.0355 20.8607L17.1082 21.0478L17.7484 21.7442L17.6398 22.6839L18.5 22.2902L19.3601 22.6839L19.2515 21.7442L19.8917 21.0478Z" fill="#009CF0"/>
<path fill-rule="evenodd" clip-rule="evenodd" d="M64.3236 5.54701L64.0956 2.22031L61.3677 4.13801L58.1333 3.32692L59.1142 6.5139L57.3433 9.33932L60.6774 9.39128L62.8173 11.9486L63.897 8.79371L66.9904 7.54879L64.3236 5.54701ZM64.9712 7.28347L63.3573 6.07202L63.2193 4.05873L61.5684 5.21931L59.611 4.72844L60.2046 6.65717L59.1329 8.36709L61.1506 8.39853L62.4457 9.94618L63.0991 8.03689L64.9712 7.28347Z" fill="#009CF0"/>
<path fill-rule="evenodd" clip-rule="evenodd" d="M56 27C56.5523 27 57 26.5523 57 26C57 25.4477 56.5523 25 56 25C55.4477 25 55 25.4477 55 26C55 26.5523 55.4477 27 56 27ZM56 28C57.1046 28 58 27.1046 58 26C58 24.8954 57.1046 24 56 24C54.8954 24 54 24.8954 54 26C54 27.1046 54.8954 28 56 28Z" fill="#009CF0"/>
<path fill-rule="evenodd" clip-rule="evenodd" d="M27.5 5C27.7761 5 28 4.77614 28 4.5C28 4.22386 27.7761 4 27.5 4C27.2239 4 27 4.22386 27 4.5C27 4.77614 27.2239 5 27.5 5ZM27.5 6C28.3284 6 29 5.32843 29 4.5C29 3.67157 28.3284 3 27.5 3C26.6716 3 26 3.67157 26 4.5C26 5.32843 26.6716 6 27.5 6Z" fill="#009CF0"/>
<path d="M12 12C12 12.5523 11.5523 13 11 13C10.4477 13 10 12.5523 10 12C10 11.4477 10.4477 11 11 11C11.5523 11 12 11.4477 12 12Z" fill="#009CF0"/>
</g>
<defs>
<clipPath id="clip0_1259_10876">
<rect width="80" height="80" fill="white"/>
</clipPath>
</defs>
</svg>
