<svg width="16" height="16" viewBox="0 0 16 16" fill="none" xmlns="http://www.w3.org/2000/svg">
    <path fill-rule="evenodd" clip-rule="evenodd" d="M1.5 3.66602C1.5 3.11373 1.94772 2.66602 2.5 2.66602H13.5C14.0523 2.66602 14.5 3.11373 14.5 3.66602V12.666C14.5 13.2183 14.0523 13.666 13.5 13.666H2.5C1.94772 13.666 1.5 13.2183 1.5 12.666V3.66602ZM13.5 3.66602H2.5V12.666H13.5V3.66602Z" fill="#9CAAB7"/>
    <path fill-rule="evenodd" clip-rule="evenodd" d="M5.11731 6.40815C5.23863 6.3579 5.36867 6.33203 5.49999 6.33203C5.63131 6.33203 5.76135 6.3579 5.88267 6.40815C6.004 6.45841 6.11424 6.53207 6.2071 6.62492L8.99999 9.41782L10.2929 8.12492C10.3857 8.03206 10.496 7.95841 10.6173 7.90815C10.7386 7.8579 10.8687 7.83203 11 7.83203C11.1313 7.83203 11.2613 7.8579 11.3827 7.90815C11.504 7.95841 11.6142 8.03206 11.7071 8.12492L14.3535 10.7714C14.4473 10.8651 14.5 10.9923 14.5 11.1249V12.6249C14.5 12.9011 14.2761 13.1249 14 13.1249H2C1.72386 13.1249 1.5 12.9011 1.5 12.6249V10.1249C1.5 9.99231 1.55268 9.86513 1.64645 9.77136L4.79288 6.62492C4.88574 6.53207 4.99598 6.45841 5.11731 6.40815ZM2.5 10.332V12.8529H13.5V11.332L11 8.83203L9.7071 10.1249C9.61424 10.2178 9.504 10.2914 9.38267 10.3417C9.26135 10.392 9.13131 10.4178 8.99999 10.4178C8.86867 10.4178 8.73863 10.392 8.61731 10.3417C8.49598 10.2914 8.38574 10.2178 8.29288 10.1249L5.49999 7.33203L2.5 10.332Z" fill="#9CAAB7"/>
    <path d="M9.75 7C10.1642 7 10.5 6.66421 10.5 6.25C10.5 5.83579 10.1642 5.5 9.75 5.5C9.33579 5.5 9 5.83579 9 6.25C9 6.66421 9.33579 7 9.75 7Z" fill="#9CAAB7"/>
</svg>
