<svg width="32" height="32" viewBox="0 0 32 32" fill="none" xmlns="http://www.w3.org/2000/svg">
    <path fill-rule="evenodd" clip-rule="evenodd" d="M14.5 5C9.25329 5 5 9.25329 5 14.5C5 19.7467 9.25329 24 14.5 24C19.7467 24 24 19.7467 24 14.5C24 9.25329 19.7467 5 14.5 5ZM3 14.5C3 8.14873 8.14873 3 14.5 3C20.8513 3 26 8.14873 26 14.5C26 20.8513 20.8513 26 14.5 26C8.14873 26 3 20.8513 3 14.5Z" fill="white"/>
    <path fill-rule="evenodd" clip-rule="evenodd" d="M21.2167 21.2177C21.6072 20.8272 22.2404 20.8272 22.6309 21.2177L28.706 27.2928C29.0965 27.6833 29.0965 28.3165 28.706 28.707C28.3155 29.0975 27.6823 29.0975 27.2918 28.707L21.2167 22.6319C20.8262 22.2414 20.8262 21.6082 21.2167 21.2177Z" fill="white"/>
</svg>