<svg width="17" height="17" viewBox="0 0 17 17" fill="none" xmlns="http://www.w3.org/2000/svg">
<path fill-rule="evenodd" clip-rule="evenodd" d="M12.3105 9.14645C12.5058 8.95118 12.8224 8.95118 13.0176 9.14645L15.0176 11.1464C15.2129 11.3417 15.2129 11.6583 15.0176 11.8536L13.0176 13.8536C12.8224 14.0488 12.5058 14.0488 12.3105 13.8536C12.1152 13.6583 12.1152 13.3417 12.3105 13.1464L13.957 11.5L12.3105 9.85355C12.1152 9.65829 12.1152 9.34171 12.3105 9.14645Z" fill="#040B1D"/>
<path fill-rule="evenodd" clip-rule="evenodd" d="M2.16406 11.5C2.16406 11.2239 2.38792 11 2.66406 11H14.6641C14.9402 11 15.1641 11.2239 15.1641 11.5C15.1641 11.7761 14.9402 12 14.6641 12H2.66406C2.38792 12 2.16406 11.7761 2.16406 11.5Z" fill="#040B1D"/>
<path fill-rule="evenodd" clip-rule="evenodd" d="M5.01762 3.14645C5.21288 3.34171 5.21288 3.65829 5.01762 3.85355L3.37117 5.5L5.01762 7.14645C5.21288 7.34171 5.21288 7.65829 5.01762 7.85355C4.82235 8.04882 4.50577 8.04882 4.31051 7.85355L2.31051 5.85355C2.11525 5.65829 2.11525 5.34171 2.31051 5.14645L4.31051 3.14645C4.50577 2.95118 4.82235 2.95118 5.01762 3.14645Z" fill="#040B1D"/>
<path fill-rule="evenodd" clip-rule="evenodd" d="M2.16406 5.5C2.16406 5.22386 2.38792 5 2.66406 5H14.6641C14.9402 5 15.1641 5.22386 15.1641 5.5C15.1641 5.77614 14.9402 6 14.6641 6H2.66406C2.38792 6 2.16406 5.77614 2.16406 5.5Z" fill="#040B1D"/>
</svg>
