<svg width="32" height="32" viewBox="0 0 32 32" fill="none" xmlns="http://www.w3.org/2000/svg">
    <path fill-rule="evenodd" clip-rule="evenodd" d="M4 20C4 18.8954 4.89543 18 6 18H26C27.1046 18 28 18.8954 28 20V25C28 26.1046 27.1046 27 26 27H6C4.89543 27 4 26.1046 4 25V20ZM26 20H6V25H26V20Z" fill="white"/>
    <path fill-rule="evenodd" clip-rule="evenodd" d="M4 7C4 5.89543 4.89543 5 6 5H26C27.1046 5 28 5.89543 28 7V12C28 13.1046 27.1046 14 26 14H6C4.89543 14 4 13.1046 4 12V7ZM26 7H6V12H26V7Z" fill="white"/>
</svg>
