<svg width="349" height="349" viewBox="0 0 349 184" fill="none" xmlns="http://www.w3.org/2000/svg">
    <g opacity="0.08">
        <path fill-rule="evenodd" clip-rule="evenodd" d="M190.922 211.167C190.095 210.257 189.071 209.553 187.929 209.108C186.786 208.664 185.558 208.493 184.339 208.607C181.246 208.607 178.073 209.007 174.9 209.007C150.317 209.074 126.345 201.281 106.427 186.747C86.5101 172.213 71.6721 151.687 64.0448 128.115C56.4175 104.544 56.3933 79.141 63.9757 55.555C71.5581 31.9689 86.3568 11.4135 106.246 -3.15897C126.136 -17.7314 150.093 -25.5711 174.677 -25.552C199.26 -25.5328 223.205 -17.6558 243.073 -3.05237C262.94 11.5511 277.707 32.1296 285.253 55.7274C292.8 79.3252 292.736 104.728 285.073 128.287C284.364 130.141 284.364 132.194 285.073 134.047L311.407 191.167C311.699 191.801 312.151 192.347 312.717 192.749C313.284 193.152 313.945 193.398 314.635 193.463C315.325 193.528 316.02 193.409 316.65 193.118C317.281 192.828 317.825 192.376 318.228 191.807C341.636 157.517 352.234 115.967 348.139 74.5407C344.044 33.114 325.522 -5.50742 295.863 -34.4621C266.204 -63.4168 227.328 -80.8298 186.143 -83.6076C144.958 -86.3854 104.13 -74.348 70.9122 -49.6342C37.6948 -24.9203 14.239 10.8699 4.71185 51.3779C-4.81526 91.8858 0.203279 134.489 18.8759 171.617C37.5485 208.746 68.666 237.996 106.7 254.172C144.734 270.348 187.222 272.401 226.616 259.967C227.246 259.764 227.816 259.405 228.273 258.923C228.731 258.44 229.061 257.85 229.235 257.206C229.408 256.562 229.419 255.884 229.266 255.235C229.114 254.585 228.802 253.984 228.361 253.487L190.922 211.167Z" fill="#FF4D6A"/>
        <path fill-rule="evenodd" clip-rule="evenodd" d="M245.331 112.208L220.821 143.648C219.89 144.82 218.612 145.661 217.173 146.048L178.862 155.968H178.307H177.91C177.888 155.809 177.888 155.647 177.91 155.488C177.873 155.33 177.873 155.166 177.91 155.008L190.205 107.968C190.365 107.258 190.666 106.588 191.088 105.997C191.51 105.406 192.046 104.906 192.664 104.528C193.852 103.728 195.299 103.413 196.709 103.648L244.696 110.688H245.172C245.206 110.819 245.206 110.957 245.172 111.088C245.209 111.246 245.209 111.41 245.172 111.568C245.247 111.655 245.301 111.758 245.328 111.869C245.356 111.98 245.357 112.097 245.331 112.208ZM181.876 168.688L224.708 157.328C226.159 156.969 227.446 156.123 228.357 154.928L255.642 120.048H256.118H256.594L307.357 230.128C307.915 231.438 308.134 232.87 307.992 234.288C307.822 235.715 307.274 237.069 306.406 238.208L294.032 255.728C293.233 256.721 292.155 257.446 290.939 257.808L269.84 263.488C268.464 263.869 267.012 263.869 265.636 263.488C264.259 263.056 263.025 262.254 262.067 261.168L181.242 170.208V169.808C181.2 169.735 181.178 169.652 181.178 169.568C181.178 169.484 181.2 169.401 181.242 169.328C181.207 169.267 181.189 169.198 181.189 169.128C181.189 169.058 181.207 168.989 181.242 168.928L181.876 168.688Z" fill="#FF4D6A"/>
    </g>
</svg>
