<svg width="349" height="164" viewBox="0 0 349 164" fill="none" xmlns="http://www.w3.org/2000/svg">
    <g opacity="0.08">
        <path fill-rule="evenodd" clip-rule="evenodd" d="M209.919 249.307C209.919 254.129 214.3 257.74 218.901 256.507C293.77 236.455 349 166.894 349 84.163C349 -14.2337 270.874 -94 174.5 -94C78.1263 -94 0 -14.2337 0 84.163C0 168.796 57.7987 239.647 135.293 257.811C139.842 258.878 144.068 255.286 144.068 250.555V208.346C144.068 204.937 141.82 201.965 138.619 200.912C114.077 192.838 94.2265 178.542 79.0688 158.023C62.9187 136.006 54.8436 110.495 54.8436 81.4893C54.8436 43.1642 68.9466 11.7703 97.1525 -12.6925C120.582 -32.9617 147.252 -43.0963 177.164 -43.0963C215.72 -43.0963 246.826 -28.8263 270.483 -0.286395C289.59 22.7785 299.144 49.3964 299.144 79.5672C299.144 109.156 290.67 135.657 273.724 159.071C259.511 178.843 240.055 192.79 215.357 200.911C212.161 201.962 209.919 204.931 209.919 208.336V249.307ZM207.702 108.315C207.702 104.115 204.341 100.71 200.196 100.71H153.961C149.816 100.71 146.456 104.115 146.456 108.315V111.2C146.456 117.649 139.24 120.841 135.638 115.525C129.202 106.026 125.984 94.7978 125.984 81.8387C125.984 67.0446 131.045 54.2307 141.167 43.3972C151.29 32.5637 163.289 27.1469 177.164 27.1469C190.926 27.1469 202.868 32.5637 212.99 43.3972C223.113 54.2307 228.174 67.0446 228.174 81.8387C228.174 94.4036 224.993 105.476 218.633 115.055C215.041 120.463 207.702 117.297 207.702 110.778V108.315Z" fill="#00BFFF"/>
    </g>
</svg>
